<mxfile host="app.diagrams.net" modified="2023-10-17T21:26:55.592Z" agent="Mozilla/5.0 (Macintosh; Intel Mac OS X 10_15_7) AppleWebKit/605.1.15 (KHTML, like Gecko) Version/15.4 Safari/605.1.15" etag="pGsuowhLQxo4fB-YzNRo" version="22.0.4" type="github">
  <diagram name="Page-1" id="GBRC-5mhHijUlW8Tp87k">
    <mxGraphModel dx="1434" dy="804" grid="1" gridSize="10" guides="1" tooltips="1" connect="1" arrows="1" fold="1" page="1" pageScale="1" pageWidth="827" pageHeight="1169" math="0" shadow="0">
      <root>
        <mxCell id="0" />
        <mxCell id="1" parent="0" />
        <mxCell id="1ZgbpAgvegRgs1IjbycT-11" style="edgeStyle=orthogonalEdgeStyle;rounded=0;orthogonalLoop=1;jettySize=auto;html=1;exitX=0.5;exitY=1;exitDx=0;exitDy=0;entryX=0.5;entryY=0;entryDx=0;entryDy=0;" edge="1" parent="1" source="1ZgbpAgvegRgs1IjbycT-1" target="1ZgbpAgvegRgs1IjbycT-6">
          <mxGeometry relative="1" as="geometry" />
        </mxCell>
        <mxCell id="1ZgbpAgvegRgs1IjbycT-12" style="edgeStyle=orthogonalEdgeStyle;orthogonalLoop=1;jettySize=auto;html=1;exitX=0;exitY=1;exitDx=0;exitDy=0;entryX=0.5;entryY=0;entryDx=0;entryDy=0;curved=1;" edge="1" parent="1" source="1ZgbpAgvegRgs1IjbycT-1" target="1ZgbpAgvegRgs1IjbycT-4">
          <mxGeometry relative="1" as="geometry" />
        </mxCell>
        <mxCell id="1ZgbpAgvegRgs1IjbycT-13" style="edgeStyle=orthogonalEdgeStyle;orthogonalLoop=1;jettySize=auto;html=1;exitX=0;exitY=1;exitDx=0;exitDy=0;entryX=0.75;entryY=0;entryDx=0;entryDy=0;curved=1;" edge="1" parent="1" source="1ZgbpAgvegRgs1IjbycT-1" target="1ZgbpAgvegRgs1IjbycT-3">
          <mxGeometry relative="1" as="geometry" />
        </mxCell>
        <mxCell id="1ZgbpAgvegRgs1IjbycT-14" style="edgeStyle=orthogonalEdgeStyle;orthogonalLoop=1;jettySize=auto;html=1;exitX=0;exitY=0.5;exitDx=0;exitDy=0;entryX=0.5;entryY=0;entryDx=0;entryDy=0;curved=1;" edge="1" parent="1" source="1ZgbpAgvegRgs1IjbycT-1" target="1ZgbpAgvegRgs1IjbycT-2">
          <mxGeometry relative="1" as="geometry" />
        </mxCell>
        <mxCell id="1ZgbpAgvegRgs1IjbycT-16" style="edgeStyle=orthogonalEdgeStyle;orthogonalLoop=1;jettySize=auto;html=1;exitX=1;exitY=1;exitDx=0;exitDy=0;entryX=0.5;entryY=0;entryDx=0;entryDy=0;curved=1;" edge="1" parent="1" source="1ZgbpAgvegRgs1IjbycT-1" target="1ZgbpAgvegRgs1IjbycT-8">
          <mxGeometry relative="1" as="geometry" />
        </mxCell>
        <mxCell id="1ZgbpAgvegRgs1IjbycT-17" style="edgeStyle=orthogonalEdgeStyle;orthogonalLoop=1;jettySize=auto;html=1;exitX=1;exitY=1;exitDx=0;exitDy=0;entryX=0.25;entryY=0;entryDx=0;entryDy=0;curved=1;" edge="1" parent="1" source="1ZgbpAgvegRgs1IjbycT-1" target="1ZgbpAgvegRgs1IjbycT-7">
          <mxGeometry relative="1" as="geometry" />
        </mxCell>
        <mxCell id="1ZgbpAgvegRgs1IjbycT-1" value="&lt;font style=&quot;font-size: 20px;&quot;&gt;Model&lt;/font&gt;" style="ellipse;whiteSpace=wrap;html=1;" vertex="1" parent="1">
          <mxGeometry x="330" y="230" width="110" height="60" as="geometry" />
        </mxCell>
        <mxCell id="1ZgbpAgvegRgs1IjbycT-2" value="&lt;font style=&quot;font-size: 20px;&quot;&gt;Nouns&lt;/font&gt;" style="rounded=1;whiteSpace=wrap;html=1;" vertex="1" parent="1">
          <mxGeometry y="370" width="100" height="40" as="geometry" />
        </mxCell>
        <mxCell id="1ZgbpAgvegRgs1IjbycT-3" value="&lt;font style=&quot;font-size: 17px;&quot;&gt;Proper nouns&lt;/font&gt;" style="rounded=1;whiteSpace=wrap;html=1;" vertex="1" parent="1">
          <mxGeometry x="110" y="370" width="100" height="40" as="geometry" />
        </mxCell>
        <mxCell id="1ZgbpAgvegRgs1IjbycT-4" value="&lt;font style=&quot;font-size: 20px;&quot;&gt;Verbs&lt;/font&gt;" style="rounded=1;whiteSpace=wrap;html=1;" vertex="1" parent="1">
          <mxGeometry x="220" y="370" width="100" height="40" as="geometry" />
        </mxCell>
        <mxCell id="1ZgbpAgvegRgs1IjbycT-5" value="&lt;font style=&quot;font-size: 20px;&quot;&gt;Adverbs&lt;/font&gt;" style="rounded=1;whiteSpace=wrap;html=1;" vertex="1" parent="1">
          <mxGeometry x="670" y="370" width="100" height="40" as="geometry" />
        </mxCell>
        <mxCell id="1ZgbpAgvegRgs1IjbycT-6" value="&lt;font style=&quot;font-size: 20px;&quot;&gt;Adjectives&lt;/font&gt;" style="rounded=1;whiteSpace=wrap;html=1;" vertex="1" parent="1">
          <mxGeometry x="335" y="370" width="100" height="40" as="geometry" />
        </mxCell>
        <mxCell id="1ZgbpAgvegRgs1IjbycT-7" value="&lt;font style=&quot;font-size: 20px;&quot;&gt;Colors&lt;/font&gt;" style="rounded=1;whiteSpace=wrap;html=1;" vertex="1" parent="1">
          <mxGeometry x="560" y="370" width="100" height="40" as="geometry" />
        </mxCell>
        <mxCell id="1ZgbpAgvegRgs1IjbycT-8" value="&lt;font style=&quot;font-size: 20px;&quot;&gt;Numbers&lt;/font&gt;" style="rounded=1;whiteSpace=wrap;html=1;" vertex="1" parent="1">
          <mxGeometry x="450" y="370" width="100" height="40" as="geometry" />
        </mxCell>
        <mxCell id="1ZgbpAgvegRgs1IjbycT-15" style="edgeStyle=orthogonalEdgeStyle;orthogonalLoop=1;jettySize=auto;html=1;exitX=1;exitY=0.5;exitDx=0;exitDy=0;entryX=0.57;entryY=0;entryDx=0;entryDy=0;entryPerimeter=0;curved=1;" edge="1" parent="1" source="1ZgbpAgvegRgs1IjbycT-1" target="1ZgbpAgvegRgs1IjbycT-5">
          <mxGeometry relative="1" as="geometry" />
        </mxCell>
      </root>
    </mxGraphModel>
  </diagram>
</mxfile>
